<svg width="17" height="13" viewBox="0 0 17 13" fill="none" xmlns="http://www.w3.org/2000/svg">
<path d="M16.8348 2.97704C16.8348 2.97704 16.6728 1.83322 16.1738 1.33098C15.542 0.669968 14.8356 0.666727 14.5115 0.627844C12.1915 0.45935 8.70823 0.459351 8.70823 0.459351H8.70175C8.70175 0.459351 5.21847 0.45935 2.89844 0.627844C2.57441 0.666727 1.86803 0.669968 1.23618 1.33098C0.737179 1.83322 0.578406 2.97704 0.578406 2.97704C0.578406 2.97704 0.409912 4.32175 0.409912 5.66322V6.92044C0.409912 8.26191 0.575166 9.60662 0.575166 9.60662C0.575166 9.60662 0.737179 10.7504 1.23294 11.2527C1.86479 11.9137 2.6943 11.891 3.06369 11.9623C4.3922 12.0887 8.70499 12.1275 8.70499 12.1275C8.70499 12.1275 12.1915 12.1211 14.5115 11.9558C14.8356 11.9169 15.542 11.9137 16.1738 11.2527C16.6728 10.7504 16.8348 9.60662 16.8348 9.60662C16.8348 9.60662 17.0001 8.26515 17.0001 6.92044V5.66322C17.0001 4.32175 16.8348 2.97704 16.8348 2.97704ZM6.99089 8.4466V3.78386L11.4722 6.12333L6.99089 8.4466Z" fill="white"/>
</svg>
