<svg width="198" height="29" viewBox="0 0 198 29" fill="none" xmlns="http://www.w3.org/2000/svg">
<path d="M144.042 7.81111C143.977 7.88168 143.921 8.01462 143.921 8.1131V15.5906C143.921 15.6841 143.977 15.7087 144.044 15.6414L146.993 12.6971C147.06 12.6298 147.112 12.4952 147.112 12.4V8.1131C147.112 8.01462 147.17 7.88168 147.235 7.81111L150.678 4.17907C150.742 4.10849 150.798 3.97391 150.798 3.882V1.04924L150.676 1L144.041 7.80947" fill="#009046"/>
<path d="M150.783 7.9375H147.718V10.8737H150.783V7.9375Z" fill="#009046"/>
<path d="M158.191 1.04919L155.296 3.92956C155.227 3.99685 155.173 4.13143 155.173 4.22662V7.76348C155.173 7.85867 155.096 7.93745 155.001 7.93745H154.748C154.653 7.93745 154.576 7.85867 154.576 7.76348V4.22662C154.576 4.13143 154.519 3.99685 154.452 3.92956L151.558 1.04919H151.385V12.3983C151.385 12.4935 151.44 12.6281 151.507 12.6954L154.45 15.6397C154.517 15.7038 154.574 15.6824 154.574 15.5889V11.0574C154.574 10.9606 154.651 10.8851 154.746 10.8851H154.998C155.091 10.8851 155.171 10.9606 155.171 11.0574V15.5889C155.171 15.6824 155.225 15.707 155.294 15.6397L158.24 12.6954C158.308 12.6281 158.366 12.4935 158.366 12.3983V1.04919H158.189" fill="#009046"/>
<path d="M161.292 17.665H141V17.8571H161.292V17.665Z" fill="black"/>
<path d="M141.824 22.5641L141.005 24.55H141.667L141.79 24.2184H142.622L142.739 24.55H143.486L142.668 22.5641H141.826M141.96 23.7835L142.217 23.0876L142.464 23.7835H141.96Z" fill="black"/>
<path d="M144.407 22.5641H143.732V24.5483H145.146V24.0642H144.407V22.5641Z" fill="black"/>
<path d="M146.825 23.2977H146.11V22.5641H145.434V24.5483H146.11V23.7819H146.825V24.5483H147.5V22.5641H146.825V23.2977Z" fill="black"/>
<path d="M148.519 22.5641L147.701 24.55H148.364L148.486 24.2184H149.319L149.435 24.55H150.178L149.363 22.5641H148.521M148.65 23.7835L148.91 23.0876L149.16 23.7835H148.65Z" fill="black"/>
<path d="M152.144 23.6654C152.05 23.5899 151.944 23.5505 151.825 23.5456V23.539C151.934 23.5078 152.026 23.457 152.101 23.3831C152.175 23.3175 152.211 23.2141 152.211 23.0795C152.217 22.7365 151.983 22.5658 151.507 22.5625H150.389V24.5484H151.599C151.769 24.5484 151.893 24.5369 151.975 24.5106L152.085 24.463L152.163 24.3925C152.244 24.3153 152.281 24.1922 152.284 24.0363C152.281 23.8689 152.234 23.7425 152.145 23.6638M151.063 22.9285H151.278L151.421 22.94L151.507 22.9843C151.545 23.022 151.561 23.0778 151.56 23.1468C151.56 23.2124 151.54 23.2649 151.499 23.306C151.458 23.3454 151.383 23.3651 151.28 23.3651H151.063V22.9285ZM151.547 24.1348C151.493 24.1742 151.404 24.1922 151.28 24.1922H151.063V23.7179H151.28C151.404 23.7179 151.494 23.7327 151.547 23.7721C151.599 23.8098 151.624 23.8738 151.624 23.9559C151.624 24.038 151.601 24.0971 151.547 24.1348Z" fill="black"/>
<path d="M152.477 23.045H153.007V24.5483H153.678V23.045H154.208V22.5641H152.477V23.045Z" fill="black"/>
<path d="M155.449 22.5132C155.243 22.5132 155.086 22.5312 154.97 22.5706C154.852 22.6067 154.757 22.6609 154.682 22.7315C154.481 22.8939 154.378 23.168 154.373 23.5554C154.371 23.8574 154.45 24.1052 154.614 24.3005C154.782 24.4974 155.06 24.5975 155.448 24.6008C155.857 24.5975 156.143 24.4794 156.31 24.2578C156.447 24.0986 156.517 23.8639 156.519 23.5586C156.519 23.2517 156.441 23.0039 156.279 22.8119C156.115 22.6149 155.837 22.5165 155.448 22.5132M155.448 24.1479C155.332 24.1479 155.24 24.1003 155.171 24.0018C155.099 23.9066 155.062 23.7589 155.062 23.557C155.062 23.3551 155.099 23.2009 155.171 23.1057C155.242 23.0088 155.332 22.9612 155.448 22.9612C155.691 22.9612 155.821 23.1582 155.829 23.557C155.821 23.9558 155.691 24.1511 155.448 24.1479Z" fill="black"/>
<path d="M157.885 22.5132C157.682 22.5132 157.523 22.5312 157.407 22.5706C157.291 22.6067 157.191 22.6609 157.121 22.7315C156.918 22.8939 156.815 23.168 156.814 23.5554C156.809 23.8574 156.89 24.1052 157.057 24.3005C157.222 24.4974 157.499 24.5975 157.885 24.6008C158.295 24.5975 158.582 24.4794 158.748 24.2578C158.889 24.0986 158.956 23.8639 158.959 23.5586C158.959 23.2517 158.883 23.0039 158.719 22.8119C158.554 22.6149 158.276 22.5165 157.885 22.5132ZM157.885 24.1479C157.772 24.1479 157.682 24.1003 157.612 24.0018C157.536 23.9066 157.499 23.7589 157.499 23.557C157.499 23.3551 157.536 23.2009 157.612 23.1057C157.682 23.0088 157.772 22.9612 157.885 22.9612C158.133 22.9612 158.264 23.1582 158.272 23.557C158.264 23.9558 158.133 24.1511 157.885 24.1479Z" fill="black"/>
<path d="M161.195 23.8837C161.182 23.782 161.143 23.713 161.089 23.6704C161.032 23.6293 160.965 23.6096 160.885 23.6096V23.5817C160.988 23.5604 161.071 23.5079 161.133 23.4275C161.2 23.3487 161.231 23.2404 161.231 23.114C161.231 22.8941 161.168 22.7513 161.037 22.6709C160.912 22.5954 160.731 22.5609 160.507 22.5642H159.341V24.5501H160.016V23.8296H160.227C160.345 23.8279 160.418 23.8427 160.456 23.8755C160.495 23.9083 160.518 23.9904 160.526 24.1069L160.587 24.5501H161.282L161.197 23.8854M160.495 23.3914C160.445 23.4307 160.378 23.4439 160.296 23.4439H160.018V22.963H160.283C160.472 22.963 160.571 23.0385 160.571 23.201C160.571 23.2929 160.544 23.3553 160.497 23.3897" fill="black"/>
<path d="M142.309 21.7682C142.415 21.696 142.469 21.5942 142.48 21.4629V19.8282H141.81V21.2775C141.81 21.3513 141.752 21.3891 141.679 21.3891L141 21.3923V21.8732H141.862C142.032 21.8732 142.197 21.8404 142.307 21.7698" fill="black"/>
<path d="M161.289 19.0978H160.611V21.0935H161.289V19.0978Z" fill="black"/>
<path d="M144.389 21.5072V21.0936H159.736C160.183 21.0936 160.324 20.9524 160.324 20.6652V19.0962H159.646V20.4551L159.597 20.5996H158.667V20.1679C158.667 19.9184 158.483 19.7954 158.119 19.7921H157.057V20.2762H157.994C158.061 20.2762 158.114 20.3288 158.114 20.3977V20.5996H154.481V19.8265H153.805V20.5996H149.952V19.8265H149.275V20.5996H144.387C144.391 20.5159 144.391 19.8462 144.387 19.8265H143.331C143.167 19.8167 143.03 19.861 142.928 19.9513C142.827 20.0497 142.776 20.268 142.773 20.4994C142.776 20.7112 142.825 20.8654 142.922 20.9557C143.02 21.046 143.144 21.0903 143.3 21.0936H143.835V21.279C143.835 21.3463 143.781 21.3874 143.714 21.3874H142.775V21.8715H143.838C144.203 21.8781 144.389 21.755 144.389 21.5072ZM143.838 20.7177H143.71C143.601 20.7177 143.521 20.6997 143.473 20.6652C143.429 20.6291 143.408 20.5635 143.408 20.4797C143.408 20.4059 143.426 20.3485 143.46 20.3091C143.496 20.2697 143.558 20.2533 143.648 20.2533H143.836V20.7177H143.838Z" fill="black"/>
<path d="M154.479 21.3184H153.804V21.8206H154.479V21.3184Z" fill="black"/>
<path d="M149.496 19.1028H148.818V19.6034H149.496V19.1028Z" fill="black"/>
<path d="M150.394 19.1028H149.716V19.6034H150.394V19.1028Z" fill="black"/>
<path d="M13.2636 16.4825C12.5899 16.8205 11.9162 17.0671 11.2703 17.2182C10.6164 17.3812 9.95066 17.4607 9.29282 17.4607C8.53988 17.4607 7.89393 17.3494 7.33121 17.1188C6.76848 16.8921 6.32067 16.5581 5.98779 16.1008C5.64699 15.6435 5.44092 15.1027 5.37356 14.4784C5.31015 13.8621 5.38148 13.1941 5.6034 12.4823C6.05912 10.9872 6.91906 9.78234 8.19114 8.86379C9.46718 7.94923 10.9176 7.49194 12.5542 7.49194C13.1368 7.49194 13.6916 7.55954 14.2068 7.68281C14.7259 7.81006 15.2094 8.00887 15.677 8.27529L14.9874 10.5339C14.5634 10.184 14.1077 9.92947 13.6242 9.75848C13.1408 9.59545 12.6295 9.50797 12.0946 9.50797C11.1237 9.50797 10.2835 9.76643 9.57022 10.3032C8.85294 10.8281 8.34966 11.5518 8.07226 12.4823C7.80278 13.381 7.84242 14.0967 8.21493 14.6415C8.57951 15.1783 9.21356 15.4447 10.1052 15.4447C10.6798 15.4447 11.2901 15.3453 11.9321 15.1425C12.578 14.9397 13.2477 14.6335 13.9412 14.2359L13.2636 16.4825Z" fill="black"/>
<path d="M16.3981 17.2899L23.5193 7.65906H26.2854L27.0898 17.2899H24.5457L24.4308 15.417H20.2975L18.966 17.2899H16.402M21.4983 13.7668H24.3277L24.0979 10.1085L21.4983 13.7668Z" fill="black"/>
<path d="M30.5299 17.2899L33.4624 7.65906H37.0132C38.313 7.65906 39.2125 7.88969 39.696 8.343C40.1795 8.80028 40.2706 9.50012 39.9813 10.4584C39.8268 10.9913 39.5415 11.4446 39.161 11.8223C38.7647 12.2041 38.2496 12.5182 37.5997 12.7767C37.8136 12.8681 37.9801 13.0073 38.1069 13.2141C38.2377 13.4208 38.3209 13.6793 38.3684 13.9895L38.8955 17.2859H36.1889L35.8084 14.5143C35.745 14.073 35.6182 13.7708 35.4201 13.5998C35.214 13.4367 34.8851 13.3572 34.4254 13.3572H34.2748L34.1401 13.3652L32.9512 17.2859H30.5339M35.8322 11.6076C36.2681 11.6076 36.6287 11.5161 36.9022 11.3293C37.1835 11.1424 37.3777 10.8561 37.4887 10.4783C37.6036 10.1165 37.5719 9.83811 37.4015 9.65123C37.2311 9.46036 36.9379 9.37288 36.5099 9.37288H35.3606L34.6751 11.6116H35.8282L35.8322 11.6076Z" fill="black"/>
<path d="M52.8052 17.2899L55.7377 7.65906H59.2805C60.5922 7.65906 61.4838 7.88969 61.9673 8.343C62.4508 8.80028 62.5459 9.50012 62.2487 10.4584C62.0862 10.9913 61.8167 11.4446 61.4244 11.8223C61.036 12.2041 60.5169 12.5182 59.8749 12.7767C60.081 12.8681 60.2474 13.0073 60.3782 13.2141C60.505 13.4208 60.6001 13.6793 60.6398 13.9895L61.1668 17.2859H58.4562L58.0837 14.5143C58.0124 14.073 57.8856 13.7708 57.6835 13.5998C57.4813 13.4367 57.1564 13.3572 56.6888 13.3572H56.5382L56.3995 13.3652L55.2067 17.2859H52.7972M58.0916 11.6076C58.5276 11.6076 58.8882 11.5161 59.1616 11.3293C59.435 11.1424 59.6292 10.8561 59.7441 10.4783C59.8591 10.1165 59.8313 9.83811 59.6649 9.65123C59.4905 9.46036 59.1973 9.37288 58.7693 9.37288H57.6201L56.9345 11.6116H58.0916V11.6076Z" fill="black"/>
<path d="M65.3751 17.2899L68.3037 7.65906H74.7195L74.1766 9.43252H70.1662L69.5718 11.3969H73.3999L72.861 13.1862H69.021L68.3235 15.4846H72.4528L71.9059 17.2899H65.3751Z" fill="black"/>
<path d="M81.7815 11.2418L79.9387 17.2899H77.5571L80.4975 7.65906H82.6057L85.9979 13.4049L87.7535 7.65906H90.1272L87.1868 17.2899H85.3084L81.7815 11.2418Z" fill="black"/>
<path d="M94.9578 17.2899L97.3395 9.45638H94.1652L94.7121 7.65906H103.593L103.046 9.45638H99.8757L97.4821 17.2899H94.9578Z" fill="black"/>
<path d="M104.572 17.2899L111.693 7.65906H114.463L115.271 17.2899H112.727L112.612 15.417H108.475L107.14 17.2899H104.58M109.676 13.7668H112.509L112.283 10.1085L109.676 13.7668Z" fill="black"/>
<path d="M119.246 17.2899L122.182 7.65906H124.58L122.214 15.4329H126.351L125.789 17.2899H119.246Z" fill="black"/>
</svg>
